<svg width="16" height="16" viewBox="0 0 16 16" xmlns="http://www.w3.org/2000/svg">
    <g fill="none" fill-rule="evenodd">
        <path d="M0 0h16v16H0z"/>
        <path d="M9.333.667a2 2 0 0 1 1.997 1.882l.003.118v.666H14a.667.667 0 0 1 .078 1.33L14 4.666h-.668l.001 8.666a2 2 0 0 1-1.882 1.997l-.118.003H4.667a2 2 0 0 1-1.997-1.882l-.003-.118V4.667H2a.667.667 0 0 1-.078-1.33L2 3.334h2.666v-.666A2 2 0 0 1 6.55.67l.118-.003h2.666zm2.666 4H4L4 13.333c0 .342.257.624.589.663l.078.004h6.666a.667.667 0 0 0 .663-.589l.004-.078V4.667zm-5.332 2c.342 0 .623.257.662.589l.004.077v4a.667.667 0 0 1-1.329.078L6 11.333v-4c0-.368.298-.666.667-.666zm2.666 0c.342 0 .624.257.663.589l.004.077v4a.667.667 0 0 1-1.329.078l-.004-.078v-4c0-.368.298-.666.666-.666zm0-4.667H6.667a.667.667 0 0 0-.663.589L6 2.667v.666h4v-.666a.667.667 0 0 0-.589-.663L9.333 2z" fill="#F65160"/>
    </g>
</svg>
