<svg width="20" height="21" viewBox="0 0 20 21" fill="none" xmlns="http://www.w3.org/2000/svg">
<path d="M7.5 10.6377H12.5M2.5 10.6377C2.5 11.6226 2.69399 12.5979 3.0709 13.5078C3.44781 14.4178 4.00026 15.2446 4.6967 15.941C5.39314 16.6374 6.21993 17.1899 7.12987 17.5668C8.03982 17.9437 9.01509 18.1377 10 18.1377C10.9849 18.1377 11.9602 17.9437 12.8701 17.5668C13.7801 17.1899 14.6069 16.6374 15.3033 15.941C15.9997 15.2446 16.5522 14.4178 16.9291 13.5078C17.306 12.5979 17.5 11.6226 17.5 10.6377C17.5 9.65278 17.306 8.67751 16.9291 7.76757C16.5522 6.85763 15.9997 6.03083 15.3033 5.33439C14.6069 4.63796 13.7801 4.08551 12.8701 3.7086C11.9602 3.33169 10.9849 3.1377 10 3.1377C9.01509 3.1377 8.03982 3.33169 7.12987 3.7086C6.21993 4.08551 5.39314 4.63796 4.6967 5.33439C4.00026 6.03083 3.44781 6.85763 3.0709 7.76757C2.69399 8.67751 2.5 9.65278 2.5 10.6377Z" stroke="black" stroke-width="1.66667" stroke-linecap="round" stroke-linejoin="round"/>
</svg>
