<svg width="48" height="49" viewBox="0 0 48 49" fill="none" xmlns="http://www.w3.org/2000/svg">
<path d="M6 20.6377H42M14 30.6377H14.02M22 30.6377H26M6 16.6377C6 15.0464 6.63214 13.5203 7.75736 12.3951C8.88258 11.2698 10.4087 10.6377 12 10.6377H36C37.5913 10.6377 39.1174 11.2698 40.2426 12.3951C41.3679 13.5203 42 15.0464 42 16.6377V32.6377C42 34.229 41.3679 35.7551 40.2426 36.8803C39.1174 38.0056 37.5913 38.6377 36 38.6377H12C10.4087 38.6377 8.88258 38.0056 7.75736 36.8803C6.63214 35.7551 6 34.229 6 32.6377V16.6377Z" stroke="#868B91" stroke-width="2.5" stroke-linecap="round" stroke-linejoin="round"/>
</svg>
